<svg xmlns="http://www.w3.org/2000/svg" width="281" height="320" viewBox="0 0 281 320">
    <g fill="#1C1D1F" fill-rule="evenodd" opacity=".604">
        <path d="M0 0h1v320H0zM10 0h1v320h-1zM20 0h1v320h-1zM30 0h1v320h-1zM40 0h1v320h-1zM50 0h1v320h-1zM60 0h1v320h-1zM70 0h1v320h-1zM80 0h1v320h-1zM90 0h1v320h-1zM100 0h1v320h-1zM110 0h1v320h-1zM120 0h1v320h-1zM130 0h1v320h-1zM140 0h1v320h-1zM150 0h1v320h-1zM160 0h1v320h-1zM170 0h1v320h-1zM180 0h1v320h-1zM190 0h1v320h-1zM200 0h1v320h-1zM210 0h1v320h-1zM220 0h1v320h-1zM230 0h1v320h-1zM240 0h1v320h-1zM250 0h1v320h-1zM260 0h1v320h-1zM270 0h1v320h-1zM280 0h1v320h-1z"/>
    </g>
</svg>
